<svg width="1273" height="390" viewBox="0 0 1273 390" fill="none" xmlns="http://www.w3.org/2000/svg">
<path d="M605.696 389.338C592.381 389.338 586.033 385.012 586.763 376.304V129.727C585.976 121.188 592.287 116.918 605.696 116.918C619.067 116.918 625.584 120.963 625.359 129.165V146.862C631.619 136.834 640.489 128.697 651.019 123.323C661.549 117.95 673.342 115.541 685.136 116.356C696.844 116.315 708.402 118.999 718.894 124.196C729.386 129.393 738.524 136.961 745.586 146.301C760.578 166.341 768 191.036 766.541 216.021C766.79 240.569 758.42 264.426 742.889 283.438C735.475 292.174 726.234 299.178 715.819 303.954C705.403 308.73 694.066 311.162 682.607 311.079C657.438 311.79 638.599 303.962 626.09 287.595V376.417C625.977 385.013 619.292 389.338 605.696 389.338ZM656.259 267.82C663.079 270.879 670.469 272.461 677.944 272.461C685.419 272.461 692.81 270.879 699.63 267.82C706.253 264.749 712.039 260.129 716.498 254.349C720.957 248.57 723.959 241.802 725.249 234.617C728.904 219.535 728.904 203.799 725.249 188.717C723.535 181.643 719.998 175.141 714.991 169.858C709.984 164.575 703.681 160.695 696.709 158.604C682.33 153.148 666.378 153.592 652.326 159.84C645.435 162.739 639.407 167.363 634.822 173.266C630.237 179.17 627.249 186.155 626.146 193.549V240.853C631.239 252.688 641.408 261.677 656.652 267.82H656.259Z" fill="white"/>
<path d="M805.082 61.1308C805.192 54.6419 807.833 48.453 812.441 43.8833C814.654 41.4311 817.358 39.4731 820.379 38.1372C823.399 36.8013 826.667 36.1174 829.97 36.1304C833.053 36.0801 836.112 36.6794 838.948 37.8893C841.784 39.0992 844.333 40.8927 846.431 43.153C850.977 48.1209 853.38 54.6824 853.116 61.4117C853.236 64.8014 852.67 68.1803 851.454 71.3465C850.238 74.5127 848.396 77.4011 846.038 79.8389C843.891 82.1543 841.281 83.9914 838.376 85.2304C835.472 86.4695 832.34 87.0826 829.183 87.03C825.984 87.012 822.825 86.311 819.919 84.974C817.012 83.637 814.425 81.6947 812.329 79.2772C807.637 74.4066 805.035 67.8938 805.082 61.1308ZM829.464 116.525C815.812 116.525 809.183 120.963 809.408 129.334V295.067C808.902 304.73 815.756 309.45 829.97 309.337C844.183 309.225 850.588 304.506 849.127 295.067V129.334C849.577 120.682 843.06 116.413 829.464 116.525Z" fill="white"/>
<path d="M1018.79 126.468C1027.71 114.67 1036.92 112.629 1046.43 120.344C1055.95 128.06 1057.22 137.086 1050.26 147.423L993.344 208.435L1052.56 274.841C1061.21 283.268 1060.09 291.695 1049.13 300.853C1038.18 310.01 1029.47 309.785 1022.95 300.853L970.591 239.503L918.062 302.313C910.646 310.235 901.938 309.561 892.106 300.347C882.275 291.133 881.994 282.201 891.376 273.774L945.534 211.301L894.634 149.502C886.432 139.389 887.219 130.344 896.938 122.254C906.657 114.164 916.882 115.119 927.444 124.951L971.153 179.109L1018.79 126.468Z" fill="white"/>
<path d="M47.5412 302.315C43.6852 302.159 39.8845 301.342 36.3051 299.9C11.5294 289.169 -0.437246 271.809 0.0121997 246.977L0.405506 54.4459C0.0494375 52.8512 0.0252433 51.2003 0.334526 49.5959C0.643808 47.9915 1.27999 46.4679 2.20333 45.1199C5.52844 42.5946 9.6726 41.3934 13.8328 41.749H14.5632C16.7452 41.5041 18.9542 41.7011 21.0584 42.3285C23.1626 42.9559 25.1189 44.0008 26.8105 45.4008C27.6355 46.6756 28.1819 48.1102 28.4143 49.6108C28.6466 51.1114 28.5596 52.6442 28.1588 54.1088V54.5582L27.8217 235.91C29.5071 262.371 42.9904 271.865 54.3951 275.236C65.6312 282.315 64.0582 288.719 60.6873 294.562C59.4936 296.998 57.6121 299.03 55.2757 300.408C52.9392 301.786 50.2504 302.449 47.5412 302.315Z" fill="white"/>
<path d="M125.744 303.494C121.227 304.024 116.672 302.885 112.935 300.292C112.333 299.645 111.892 298.865 111.648 298.016C111.404 297.166 111.364 296.272 111.531 295.404V129.334C111.433 128.662 111.483 127.978 111.677 127.327C111.871 126.677 112.204 126.077 112.654 125.569C113.778 124.446 116.98 122.48 125.801 122.367C134.565 122.367 137.542 124.221 138.553 125.289C138.99 125.802 139.308 126.406 139.483 127.057C139.658 127.708 139.686 128.39 139.565 129.053V295.966C140.014 298.999 139.171 300.011 138.891 300.348C138.61 300.685 135.295 303.438 126.194 303.494H125.744ZM125.744 80.9058C123.327 80.9713 120.925 80.5016 118.711 79.5304C116.496 78.5591 114.524 77.1103 112.935 75.2877C109.308 71.5599 107.29 66.5563 107.317 61.3549C107.32 58.8484 107.818 56.367 108.782 54.0532C109.746 51.7395 111.157 49.6387 112.935 47.8716C114.595 45.9941 116.637 44.4919 118.923 43.465C121.209 42.4382 123.688 41.9103 126.194 41.9164C128.483 41.8546 130.758 42.2896 132.863 43.1916C134.967 44.0936 136.851 45.4411 138.385 47.1412C141.734 51.1572 143.545 56.2338 143.494 61.4628C143.442 66.6917 141.532 71.7318 138.104 75.681C136.492 77.3729 134.546 78.711 132.389 79.6104C130.232 80.5099 127.912 80.951 125.576 80.9058H125.744Z" fill="white"/>
<path d="M259.342 301.528C256.138 301.896 252.897 301.315 250.02 299.857C247.144 298.398 244.759 296.127 243.162 293.325L182.037 138.435C181.419 135.739 180.801 130.626 192.599 127.199C195.098 126.342 197.712 125.868 200.352 125.795C202.059 125.613 203.776 126.029 205.21 126.971C206.644 127.914 207.707 129.325 208.218 130.963L259.567 264.561L317.208 130.739C317.95 129.128 319.178 127.79 320.72 126.913C322.262 126.036 324.04 125.665 325.804 125.851C328.317 125.91 330.812 126.307 333.22 127.031C336.434 127.659 339.31 129.437 341.31 132.031C342.251 134.588 342.15 137.412 341.029 139.896L275.578 294.112C273.612 297.258 269.735 301.528 259.342 301.528Z" fill="white"/>
<path d="M462.998 305.851H454.908C434.432 304.786 415 296.484 400.076 282.424C383.671 267.817 374.907 246.412 374.008 218.884C372.379 193.462 380.404 168.362 396.48 148.602C403.69 139.581 412.836 132.297 423.242 127.289C433.647 122.281 445.046 119.676 456.593 119.668H459.627C480.16 118.815 500.347 125.153 516.707 137.59C531.875 149.725 539.965 172.647 540.92 205.569C541.321 209.149 540.401 212.752 538.332 215.7C536.262 218.649 533.187 220.74 529.684 221.58H401.536L402.098 227.929C402.583 235.34 404.661 242.559 408.19 249.094C411.719 255.629 416.616 261.325 422.548 265.795C435.255 275.378 450.854 280.333 466.762 279.84C475.297 279.984 483.757 278.229 491.53 274.702C499.303 271.175 506.195 265.964 511.707 259.446C515.471 253.828 518.842 253.379 521.033 253.379C524.033 253.551 526.936 254.5 529.46 256.131C530.716 256.716 531.835 257.559 532.745 258.604C533.655 259.649 534.335 260.874 534.741 262.199C535.162 267.75 533.455 273.254 529.965 277.592C522.242 287.136 512.468 294.816 501.369 300.065C489.124 304.653 476.052 306.624 462.998 305.851ZM461.256 141.747C452.728 141.817 444.274 143.336 436.256 146.242C418.559 152.478 407.435 167.478 403.222 190.793L401.986 197.647H514.74L514.122 191.243C511.707 167.759 502.043 152.647 485.47 146.298C477.749 143.298 469.539 141.755 461.256 141.747Z" fill="white"/>
<path d="M1175.28 159C1158.81 158.988 1143.01 152.431 1131.36 140.77C1119.71 129.108 1113.16 113.296 1113.16 96.8076V38.7556C1113.16 36.1514 1113.16 30.7383 1126.32 30.7383C1139.48 30.7383 1139.48 35.9612 1139.48 38.7556V96.8076C1139.47 101.515 1140.4 106.176 1142.2 110.526C1144 114.875 1146.63 118.827 1149.96 122.157C1153.28 125.487 1157.23 128.129 1161.58 129.932C1165.92 131.735 1170.58 132.664 1175.28 132.666H1233.3C1235.9 132.666 1241.31 132.666 1241.31 145.833C1241.31 159 1235.9 159 1233.3 159H1175.28Z" fill="url(#paint0_linear_6_179)"/>
<path d="M1210.15 2.50864e-05C1226.63 0.0116537 1242.43 6.56871 1254.08 18.2304C1265.73 29.892 1272.28 45.7042 1272.28 62.1924L1272.28 120.244C1272.28 122.849 1272.28 128.262 1259.12 128.262C1245.96 128.262 1245.96 123.039 1245.96 120.244L1245.96 62.1924C1245.96 57.4853 1245.04 52.824 1243.24 48.4745C1241.44 44.125 1238.81 40.1726 1235.48 36.8428C1232.16 33.5131 1228.21 30.8712 1223.86 29.0681C1219.52 27.2651 1214.86 26.336 1210.15 26.3341L1152.14 26.3341C1149.53 26.3341 1144.12 26.3341 1144.12 13.1671C1144.12 1.93139e-05 1149.53 1.97868e-05 1152.14 2.00144e-05L1210.15 2.50864e-05Z" fill="url(#paint1_linear_6_179)"/>
<path d="M1215.29 53.2046H1170.1C1168.02 53.2046 1166.34 54.888 1166.34 56.9645V102.164C1166.34 104.241 1168.02 105.924 1170.1 105.924H1215.29C1217.37 105.924 1219.05 104.241 1219.05 102.164V56.9645C1219.05 54.888 1217.37 53.2046 1215.29 53.2046Z" fill="url(#paint2_linear_6_179)"/>
<defs>
<linearGradient id="paint0_linear_6_179" x1="1113.19" y1="30.7365" x2="1241.41" y2="158.956" gradientUnits="userSpaceOnUse">
<stop stop-color="#52abd5"/>
<stop offset="1" stop-color="#5FBEB4"/>
</linearGradient>
<linearGradient id="paint1_linear_6_179" x1="1272.25" y1="128.263" x2="1144.03" y2="0.0438984" gradientUnits="userSpaceOnUse">
<stop stop-color="#52abd5"/>
<stop offset="1" stop-color="#5FBEB4"/>
</linearGradient>
<linearGradient id="paint2_linear_6_179" x1="16360.7" y1="1090.73" x2="17048.1" y2="1090.73" gradientUnits="userSpaceOnUse">
<stop stop-color="#52abd5"/>
<stop offset="0.03" stop-color="#4EC4E9"/>
<stop offset="0.42" stop-color="#57C1CC"/>
<stop offset="0.75" stop-color="#5DBFBA"/>
<stop offset="1" stop-color="#5FBEB4"/>
</linearGradient>
</defs>
</svg>
