<?xml version="1.0" encoding="UTF-8" standalone="no"?>
<svg
   height="533.33655"
   width="756.98865"
   viewBox="-35.20005 -41.33325 192.44361 165.334"
   version="1.1"
   id="svg2"
   sodipodi:docname="youtube.svg"
   inkscape:version="1.4.3 (0d15f75042, 2025-12-25)"
   xmlns:inkscape="http://www.inkscape.org/namespaces/inkscape"
   xmlns:sodipodi="http://sodipodi.sourceforge.net/DTD/sodipodi-0.dtd"
   xmlns="http://www.w3.org/2000/svg"
   xmlns:svg="http://www.w3.org/2000/svg">
  <defs
     id="defs2" />
  <sodipodi:namedview
     id="namedview2"
     pagecolor="#ffffff"
     bordercolor="#000000"
     borderopacity="0.25"
     inkscape:showpageshadow="2"
     inkscape:pageopacity="0.0"
     inkscape:pagecheckerboard="0"
     inkscape:deskcolor="#d1d1d1"
     showgrid="false"
     inkscape:zoom="1.03"
     inkscape:cx="378.15534"
     inkscape:cy="281.5534"
     inkscape:window-width="1904"
     inkscape:window-height="1032"
     inkscape:window-x="0"
     inkscape:window-y="0"
     inkscape:window-maximized="1"
     inkscape:current-layer="svg2" />
  <path
     d="m 173.45175,-15.51625 c -2.699,-10.162 -10.65,-18.165 -20.748,-20.881 -18.299,-4.936 -91.681992,-4.936 -91.681992,-4.936 0,0 -73.382,0 -91.682,4.936 -10.098,2.716 -18.051,10.719 -20.748,20.881 -4.903,18.419 -4.903,56.85 -4.903,56.85 0,0 0,38.429 4.903,56.85 2.697,10.163 10.65,18.164 20.747,20.883 18.3,4.934 91.682,4.934 91.682,4.934 0,0 73.382992,0 91.681992,-4.934 10.098,-2.718 18.049,-10.72 20.748,-20.882 4.904,-18.421 4.904,-56.85 4.904,-56.85 0,0 0,-38.431 -4.904,-56.85"
     fill="#ff0000"
     id="path1" />
  <path
     d="m 30.355255,76.22575 61.333,-34.89 -61.333,-34.894 z"
     fill="#ffffff"
     id="path2" />
</svg>
